<svg width="16" height="17" viewBox="0 0 16 17" fill="none" xmlns="http://www.w3.org/2000/svg">
<g id="Union">
<path fill-rule="evenodd" clip-rule="evenodd" d="M14 8C14 11.3137 11.3137 14 8 14C4.68629 14 2 11.3137 2 8C2 4.68629 4.68629 2 8 2C11.3137 2 14 4.68629 14 8ZM12.5396 13.3286C11.3174 14.3708 9.73218 15 8 15C4.13401 15 1 11.866 1 8C1 4.13401 4.13401 1 8 1C11.866 1 15 4.13401 15 8C15 9.77267 14.3411 11.3914 13.2548 12.6247L15.3841 15.1799L14.6159 15.8201L12.5396 13.3286Z" fill="#313131"/>
<path d="M12.5396 13.3286L12.6933 13.2005L12.5638 13.0451L12.4099 13.1764L12.5396 13.3286ZM13.2548 12.6247L13.1047 12.4926L12.9915 12.6211L13.1012 12.7528L13.2548 12.6247ZM15.3841 15.1799L15.5121 15.3336L15.6658 15.2055L15.5378 15.0519L15.3841 15.1799ZM14.6159 15.8201L14.4622 15.9481L14.5903 16.1018L14.7439 15.9737L14.6159 15.8201ZM8 14.2C11.4242 14.2 14.2 11.4242 14.2 8H13.8C13.8 11.2033 11.2033 13.8 8 13.8V14.2ZM1.8 8C1.8 11.4242 4.57583 14.2 8 14.2V13.8C4.79675 13.8 2.2 11.2033 2.2 8H1.8ZM8 1.8C4.57583 1.8 1.8 4.57583 1.8 8H2.2C2.2 4.79675 4.79675 2.2 8 2.2V1.8ZM14.2 8C14.2 4.57583 11.4242 1.8 8 1.8V2.2C11.2033 2.2 13.8 4.79675 13.8 8H14.2ZM8 15.2C9.78151 15.2 11.4123 14.5527 12.6694 13.4808L12.4099 13.1764C11.2225 14.189 9.68284 14.8 8 14.8V15.2ZM0.8 8C0.8 11.9765 4.02355 15.2 8 15.2V14.8C4.24446 14.8 1.2 11.7555 1.2 8H0.8ZM8 0.8C4.02355 0.8 0.8 4.02355 0.8 8H1.2C1.2 4.24446 4.24446 1.2 8 1.2V0.8ZM15.2 8C15.2 4.02355 11.9765 0.8 8 0.8V1.2C11.7555 1.2 14.8 4.24446 14.8 8H15.2ZM13.4049 12.7569C14.5221 11.4885 15.2 9.82318 15.2 8H14.8C14.8 9.72216 14.1601 11.2944 13.1047 12.4926L13.4049 12.7569ZM13.1012 12.7528L15.2305 15.3079L15.5378 15.0519L13.4085 12.4967L13.1012 12.7528ZM15.2561 15.0263L14.4879 15.6664L14.7439 15.9737L15.5121 15.3336L15.2561 15.0263ZM14.7695 15.6921L12.6933 13.2005L12.386 13.4566L14.4622 15.9481L14.7695 15.6921Z" fill="#313131"/>
</g>
</svg>
